<?xml version="1.0" encoding="UTF-8"?>
<svg id="Layer_1" data-name="Layer 1" xmlns="http://www.w3.org/2000/svg" viewBox="0 0 21 21">
  <defs>
    <style>
      .cls-1 {
        fill: none;
      }
    </style>
  </defs>
  <g>
    <path d="M19.15,10.35c-.08-.1-1.92-2.48-4.65-3.89h0s-.04-.02-.06-.03c-1.26-.64-2.52-.97-3.73-.97-1.32,0-2.69.38-4.07,1.14-.02.01-.04.02-.06.03,0,0,0,0,0,0-.11.06-.21.12-.32.18l.68.68s.1-.06.15-.08c.04-.02.08-.04.12-.06,1.2-.64,2.37-.96,3.5-.96,1.03,0,2.1.27,3.19.81.04.02.08.04.12.06.39.2.77.42,1.12.66,1.48.98,2.58,2.18,3.05,2.72-.6.7-2.33,2.55-4.55,3.56l.69.69c.8-.39,1.6-.91,2.39-1.54,1.49-1.2,2.4-2.38,2.44-2.43.13-.16.13-.4,0-.56h0ZM10.71,14.87c-3.56,0-6.62-3.25-7.47-4.24.43-.5,1.43-1.59,2.78-2.53.04-.03.09-.06.13-.09l-.67-.67c-1.91,1.35-3.14,2.93-3.2,3.01-.13.17-.13.4,0,.56.04.05.95,1.23,2.44,2.43,1.99,1.6,4.07,2.45,6,2.45.88,0,1.78-.17,2.7-.52l-.73-.73c-.63.2-1.29.32-1.97.32Z"/>
    <path d="M15.14,7.91c-.1-.46-.27-.9-.51-1.31-.03-.06-.08-.11-.13-.15h0s-.04-.02-.06-.04c-1.26-.64-2.52-.97-3.73-.97-1.32,0-2.69.38-4.07,1.14-.02.01-.04.02-.06.04,0,0,0,0,0,0-.05.04-.09.09-.13.15-.03.05-.05.1-.07.15l.71.71c.04-.1.08-.2.12-.3,0,0,0,0,0,0,1.2-.64,2.37-.96,3.49-.96,1.02,0,2.1.27,3.18.8,0,0,0,0,0,0,.28.53.42,1.12.42,1.73,0,1.61-1.02,2.98-2.45,3.51l.7.7c1.58-.75,2.67-2.35,2.67-4.21,0-.34-.04-.68-.11-1.01h0ZM10.6,12.65c-2.06,0-3.73-1.67-3.73-3.73,0-.06,0-.13,0-.19l-.82-.82c-.01.06-.02.12-.04.18-.05.27-.07.55-.07.83,0,2.57,2.09,4.65,4.65,4.65.35,0,.68-.04,1.01-.11l-.82-.82c-.06,0-.13,0-.19,0Z"/>
    <path d="M12.39,8.95c0,.93-.75,1.68-1.68,1.68-.33,0-.65-.1-.91-.27-.2-.13-.37-.3-.5-.5-.17-.26-.27-.58-.27-.91,0-.93.75-1.68,1.68-1.68.25,0,.49.06.71.16-.34.01-.62.3-.62.65s.29.65.65.65.65-.29.65-.65c0-.03,0-.06,0-.09.19.27.3.6.3.96Z"/>
  </g>
  <g>
    <line class="cls-1" x1="17.35" y1="17.27" x2="4.07" y2="3.99"/>
    <path d="M17.35,17.73c-.12,0-.24-.04-.33-.14L3.74,4.31c-.18-.18-.18-.47,0-.65s.47-.18.65,0l13.28,13.28c.18.18.18.47,0,.65-.09.09-.21.14-.33.14Z"/>
  </g>
</svg>