<?xml version="1.0" encoding="UTF-8"?>
<svg id="Layer_1" data-name="Layer 1" xmlns="http://www.w3.org/2000/svg" viewBox="0 0 43.6 43.6">
  <defs>
    <style>
      .cls-1 {
        fill: #231f20;
      }

      .cls-2 {
        fill: none;
        stroke: #000;
        stroke-miterlimit: 10;
        stroke-width: 3px;
      }
    </style>
  </defs>
  <circle class="cls-2" cx="21.8" cy="21.8" r="16.67"/>
  <path class="cls-1" d="M24.19,30.57c-1.78,2.38-4.01,3.51-5.08,3.51-.92,0-1.31-.92-.64-3.76.57-2.34,1.56-6.14,2.24-9.02.14-.67.11-.99-.11-.99-.35,0-1.42.71-2.34,1.6l-.46-.92c1.67-1.81,4.08-3.34,5.22-3.34.89,0,.92,1.21.28,3.83-.67,2.56-1.53,6.14-2.17,8.66-.25.96-.25,1.35,0,1.35.35,0,1.31-.5,2.56-1.81l.5.89ZM25.19,11.97c0,1.1-.78,2.06-1.88,2.06-.89,0-1.56-.64-1.56-1.6s.71-2.09,1.99-2.09c.96,0,1.46.75,1.46,1.63Z"/>
</svg>